HIERARCHY
ROOT Hips
{
  OFFSET 265.287 66.7526 -254.649
  CHANNELS 6 Xposition Yposition Zposition Zrotation Xrotation Yrotation
  JOINT LeftUpLeg
  {
    OFFSET 8.64259 1.95398 -2.38835
    CHANNELS 3 Zrotation Xrotation Yrotation
    JOINT LeftLeg
    {
      OFFSET 43.7702 0 0
      CHANNELS 3 Zrotation Xrotation Yrotation
      JOINT LeftFoot
      {
        OFFSET 40.6238 0 0
        CHANNELS 3 Zrotation Xrotation Yrotation
        JOINT LeftToeBase
        {
          OFFSET 12.7242 0 0
          CHANNELS 3 Zrotation Xrotation Yrotation
          End Site
          {
            OFFSET 0 0 0
          }
        }
      }
    }
  }
  JOINT RightUpLeg
  {
    OFFSET -8.2249 1.95398 -2.59336
    CHANNELS 3 Zrotation Xrotation Yrotation
    JOINT RightLeg
    {
      OFFSET 43.5653 0 0
      CHANNELS 3 Zrotation Xrotation Yrotation
      JOINT RightFoot
      {
        OFFSET 40.6238 0 0
        CHANNELS 3 Zrotation Xrotation Yrotation
        JOINT RightToeBase
        {
          OFFSET 12.7242 0 0
          CHANNELS 3 Zrotation Xrotation Yrotation
          End Site
          {
            OFFSET 0 0 0
          }
        }
      }
    }
  }
  JOINT Spine
  {
    OFFSET 0.165834 0.87714 6.61349
    CHANNELS 3 Zrotation Xrotation Yrotation
    JOINT Spine1
    {
      OFFSET 7.38963 1.71661e-005 0
      CHANNELS 3 Zrotation Xrotation Yrotation
      JOINT Spine2
      {
        OFFSET 11.9445 1.14441e-005 0
        CHANNELS 3 Zrotation Xrotation Yrotation
        JOINT Spine3
        {
          OFFSET 14.7254 4.19617e-005 0
          CHANNELS 3 Zrotation Xrotation Yrotation
          JOINT Spine4
          {
            OFFSET 10.9679 0 0
            CHANNELS 3 Zrotation Xrotation Yrotation
            JOINT RightShoulder
            {
              OFFSET 2.46616 -1.6653 3.69651
              CHANNELS 3 Zrotation Xrotation Yrotation
              JOINT RightArm
              {
                OFFSET 13.0012 0 0
                CHANNELS 3 Zrotation Xrotation Yrotation
                JOINT RightForeArm
                {
                  OFFSET 28.7848 1.52588e-005 0
                  CHANNELS 3 Zrotation Xrotation Yrotation
                  JOINT RightHand
                  {
                    OFFSET 26.5688 1.52588e-005 0
                    CHANNELS 3 Zrotation Xrotation Yrotation
                    End Site
                    {
                      OFFSET 0 0 0
                    }
                  }
                }
              }
            }
            JOINT LeftShoulder
            {
              OFFSET 2.38034 -1.29275 -3.7523
              CHANNELS 3 Zrotation Xrotation Yrotation
              JOINT LeftArm
              {
                OFFSET 16.3182 6.10351e-005 0
                CHANNELS 3 Zrotation Xrotation Yrotation
                JOINT LeftForeArm
                {
                  OFFSET 27.0901 0 0
                  CHANNELS 3 Zrotation Xrotation Yrotation
                  JOINT LeftHand
                  {
                    OFFSET 24.5451 1.52588e-005 0
                    CHANNELS 3 Zrotation Xrotation Yrotation
                    End Site
                    {
                      OFFSET 0 0 0
                    }
                  }
                }
              }
            }
            JOINT Neck
            {
              OFFSET 5.0226 -0.0266342 0
              CHANNELS 3 Zrotation Xrotation Yrotation
              JOINT Head
              {
                OFFSET 6.69364 2.86102e-005 0
                CHANNELS 3 Zrotation Xrotation Yrotation
                End Site
                {
                  OFFSET 0 0 0
                }
              }
            }
          }
        }
      }
    }
  }
}
MOTION
Frames:	7
Frame Time:	0.0416667
-1.123 97.1092 -12.7307 133.82 -84.5012 132.556 -173.423 0.00805109 91.3366 -11.1063 7.96626 2.51507 63.9023 1.94029 -0.262539 29.3379 -0.274334 0.926954 174.522 -0.609456 86.6721 -13.8953 -4.13306 -1.19401 67.0343 -2.33456 3.19604 29.2442 0.0971148 -1.48357 0.211502 5.98153 -89.8563 14.9104 0.489892 0.216663 3.23957 0.49895 0.194875 -19.296 0.402123 0.353874 0.716678 0.40213 0.353872 106.974 0.391287 -62.7484 3.12347 39.8594 -90.4299 22.061 58.5362 -36.4971 -4.83999 0.242949 -12.4201 -75.4667 -15.5356 102.749 3.84454 -50.3189 -102.852 2.00516 -53.8291 -8.55168 9.0375 -0.88679 -12.3279 -9.65338 -2.2583 0.0543233 -16.4822 -1.26078 -8.85271 
-1.05843 97.1075 -12.9373 133.466 -84.3125 132.244 -173.471 0.198785 91.3191 -11.4051 8.40621 2.54246 63.8427 1.93519 -0.119681 29.3975 -0.343632 1.40226 174.541 -0.566862 86.6878 -13.9389 -3.89953 -1.19849 66.8144 -2.19324 3.18606 29.5273 0.0229258 -1.21416 0.177979 6.03843 -89.8541 14.7966 0.42458 0.231406 3.12572 0.434355 0.2125 -19.4097 0.335405 0.348313 0.602993 0.335403 0.348314 106.914 0.344195 -63.0182 3.30658 39.0103 -90.3228 21.8305 57.567 -36.2551 -5.06931 0.249549 -12.2207 -75.5415 -14.9769 102.621 2.19723 -48.8699 -104.342 3.60965 -52.7009 -7.01197 7.81991 -0.816379 -12.4928 -9.01266 -2.3483 -0.241435 -16.8294 -1.44117 -7.68782 
-0.996529 97.1162 -13.124 133.317 -84.1218 132.041 -173.69 0.291432 91.1527 -11.5923 8.2559 2.66663 63.7326 1.89233 -0.165394 29.4074 -0.337883 1.32043 174.56 -0.677131 86.6394 -13.7888 -3.67077 -1.27639 66.8303 -2.17714 3.41799 29.3878 0.0602292 -1.35549 0.166822 6.09235 -89.8263 14.6886 0.416161 0.28883 3.01773 0.428467 0.27023 -19.5175 0.31011 0.400547 0.495139 0.310116 0.400548 106.866 -0.211882 -63.5422 3.46367 37.9623 -90.213 20.9245 56.6723 -35.2601 -3.38744 0.164666 -12.8937 -75.8397 -14.551 101.905 1.75244 -47.372 -105.053 4.27184 -53.0807 -5.59995 7.1276 -0.789447 -12.777 -8.55072 -2.88299 -1.05009 -16.057 -2.04138 -7.11928 
-0.93977 97.1096 -13.3163 132.999 -83.9875 131.751 -173.774 0.411795 91.1149 -11.7428 7.90126 2.73239 63.917 1.89404 -0.570251 29.0107 -0.209051 1.22768 174.561 -0.411189 86.6354 -14.1962 -3.72991 -1.25497 66.6738 -2.03459 3.17027 29.4596 0.0252258 -1.13877 0.120001 6.12885 -89.8312 14.6157 0.320977 0.292936 2.94476 0.333553 0.278522 -19.5903 0.21809 0.375861 0.422346 0.218097 0.37586 106.727 -0.627043 -64.3202 3.21856 36.218 -90.0417 22.4839 57.0523 -36.2586 -2.623 0.0974377 -12.2665 -75.9685 -14.6986 101.564 2.35512 -45.6835 -104.982 3.61387 -54.2653 -4.90901 5.43192 -0.682826 -13.0322 -7.54886 -2.9173 -0.706962 -15.8897 -2.11628 -6.95167 
-0.918306 97.1223 -13.4683 134.113 -83.8767 132.978 -173.601 0.410808 91.2641 -11.8211 8.68878 2.64627 63.746 1.91729 0.0382828 29.2071 -0.283993 1.37518 174.518 -0.546861 86.7005 -14.0338 -3.80449 -1.16232 66.408 -2.03398 2.94055 29.6443 -0.0221789 -0.964741 0.0829296 6.15217 -89.8506 14.5692 0.237984 0.266054 2.89825 0.249462 0.255323 -19.6368 0.147014 0.325279 0.375882 0.147027 0.325281 106.359 -0.92311 -65.8829 2.15707 33.9314 -88.6312 24.7632 57.0283 -37.686 -2.114 0.0659623 -12.248 -76.3751 -14.9749 100.508 3.01593 -43.2387 -104.401 3.3644 -53.2117 -3.88595 3.22287 -0.516892 -13.0783 -6.70403 -2.70109 0.201608 -16.0001 -1.90766 -7.41176 
-0.905622 97.1483 -13.6704 138.329 -83.8856 137.267 -173.502 0.160349 91.3666 -11.7539 7.96611 2.63456 63.7545 1.8453 -0.549701 29.0679 -0.23549 1.31084 174.503 -0.783881 86.7082 -13.9284 -3.98774 -1.19177 66.6371 -2.15844 3.23866 28.9651 0.100857 -1.12699 0.0883644 6.2256 -89.852 14.4223 0.247879 0.262085 2.75141 0.259177 0.250912 -19.7836 0.157651 0.324466 0.229014 0.157652 0.324462 106.106 -2.09185 -67.3877 0.499129 31.8029 -86.7027 25.1911 54.7763 -37.58 -1.19186 0.00860336 -12.3419 -76.6711 -15.038 99.7502 4.49896 -40.7134 -102.909 1.30054 -52.2367 -4.57773 2.42734 -0.470501 -13.4117 -5.62147 -2.92241 0.145915 -15.0521 -2.19385 -7.33161 
-0.822854 97.1608 -13.8947 140.02 -83.9927 139.149 -173.497 0.398958 91.4357 -12.0524 8.08873 2.67786 63.7193 1.88008 -0.142526 29.2886 -0.279732 1.11315 174.563 -0.663451 86.8177 -13.8576 -4.25077 -1.15104 66.1932 -1.99003 3.09515 29.2992 0.0344464 -0.990238 0.0906851 6.26091 -89.9018 14.3519 0.227952 0.165254 2.68091 0.235007 0.155055 -19.8542 0.167741 0.226123 0.158393 0.167749 0.226122 105.624 -3.64 -69.773 -1.53142 29.4587 -83.6068 27.7046 52.4355 -39.8401 -1.01393 -0.000136377 -12.7819 -77.1121 -15.5758 98.6316 4.25437 -36.8116 -101.695 -1.24222 -50.0672 -6.78884 2.52154 -0.448829 -12.7384 -4.64956 -2.8706 0.62563 -14.0423 -2.23745 -7.46026 
